
        <svg xmlns="http://www.w3.org/2000/svg" xmlns:xlink="http://www.w3.org/1999/xlink" version="1.1" width="3208.3333333333335" 
        height="1042.7083333333333" viewBox="0 0 3208.3333333333335 1042.7083333333333">
			
			<g transform="scale(10.416666666666666) translate(10, 10)">
				<defs id="SvgjsDefs1207"></defs><g id="SvgjsG1208" featureKey="symbolContainer" transform="matrix(0.9,0,0,0.9,0,0)" fill="#1b5a7a"><rect xmlns="http://www.w3.org/2000/svg" width="75" height="89" rx="10" ry="10"></rect></g><g id="SvgjsG1209" featureKey="monogramFeature-0" transform="matrix(1.1420504826433666,0,0,1.1420504826433666,12.570282421629383,-4.619288395492038)" fill="#ffffff"><path d="M33.481 45.89 c0.35144 2.0307 0.14543 4.1404 -0.53842 6.0588 c-0.67686 1.927 -1.861 3.6304 -3.3933 4.939 c-1.5286 1.3157 -3.3755 2.2729 -5.4132 2.8144 c-2.0389 0.53959 -4.2603 0.6711 -6.5322 0.27515 c-2.269 -0.37816 -4.5628 -1.3112 -6.576 -2.5715 c-1.9913 -1.2769 -3.8096 -2.7877 -4.9957 -4.43 c-0.59555 -0.82176 -1.057 -1.6874 -1.3264 -2.6255 c-0.27838 -0.93558 -0.31969 -1.9423 -0.096618 -2.9414 c0.136 -0.63372 0.46652 -1.2299 0.87264 -1.6214 c0.40992 -0.40108 0.87768 -0.6261 1.308 -0.67878 c0.87642 -0.10805 1.4363 0.41566 1.751 0.99534 c0.32666 0.59297 0.52752 1.2743 0.87774 1.6913 c0.33814 0.44742 0.74808 0.50209 0.81288 0.62094 c-0.027949 0.4684 0.10805 0.99144 0.3839 1.4027 c0.26631 0.42199 0.62922 0.77028 1.0106 1.0684 c0.77412 0.586 1.5737 1.0614 2.3707 1.4256 c1.5794 0.73914 3.2242 1.0016 4.6009 0.58283 c1.3601 -0.38894 2.4489 -1.4212 2.5982 -2.7133 c0.083262 -0.63048 -0.038144 -1.2775 -0.33498 -1.8266 c-0.28916 -0.5574 -0.81606 -0.9756 -1.3925 -1.1999 c-0.71436 -0.27586 -1.4656 -0.28219 -2.112 -0.25547 l-0.9165 0.055313 l-0.20912 0.012715 l-0.7506 -0.10805 l-0.39217 -0.058477 l-0.47098 -0.099138 c-0.31652 -0.0699 -0.62478 -0.13219 -0.9483 -0.21416 c-1.322 -0.35971 -2.7679 -0.89166 -4.2043 -1.7866 c-1.4993 -0.9336 -2.8105 -2.2137 -3.7867 -3.6037 c-1.9557 -2.8099 -2.8417 -6.0666 -2.6485 -9.4572 c0.099138 -1.6837 0.52371 -3.4645 1.2673 -5.0865 c0.72708 -1.6023 1.7256 -3.0336 2.8842 -4.2463 c2.3306 -2.4221 5.2517 -4.0384 8.5326 -4.7617 c0.41314 -0.084552 0.8313 -0.15445 1.2502 -0.22119 c0.42521 -0.04957 0.85296 -0.092814 1.2826 -0.12398 c0.43348 -0.01459 0.8739 -0.027305 1.3067 -0.020977 c0.42392 0.018457 0.85296 0.036269 1.2743 0.07758 c1.6887 0.16652 3.3158 0.58219 4.8304 1.1891 c3.0304 1.2222 5.6375 3.1684 7.6926 5.703 c0.64578 0.73728 0.17291 1.943 -1.001 3.0978 c-1.1637 1.1669 -2.991 2.2963 -4.8894 3.2922 s-3.8591 1.8914 -5.2892 2.59 c-1.4345 0.68388 -2.3364 1.2012 -2.3332 1.0741 c-0.12076 -0.38578 -0.43412 -0.80904 -0.73032 -1.0754 c-0.14807 -0.13664 -0.286 -0.24023 -0.40295 -0.32156 c-0.029238 -0.019688 -0.055957 -0.029883 -0.085194 -0.057188 c-0.022265 -0.01336 -0.038144 -0.02414 -0.059121 -0.04957 c-0.02543 -0.0089064 -0.052148 -0.021621 -0.081384 -0.043242 c-0.032402 -0.003164 -0.066096 -0.018398 -0.1036 -0.032988 c-0.30568 -0.083904 -0.78168 0.007617 -1.0677 0.12328 l-0.34066 0.13096 c-0.073068 0.0063282 -0.14742 0.007617 -0.22875 0.13535 c-0.1684 0.23197 -0.19002 0.7239 -0.16207 0.97686 c0.017168 0.136 -0.0063282 0.19764 0.0063864 0.28025 c0.07881 0.12521 0.3184 0.31969 0.72708 0.52559 l0.36926 0.14807 l0.18879 0.078162 l0.27709 0.0801 c0.19957 0.055313 0.33621 0.1036 0.58787 0.16523 l1.1434 0.22688 c1.5171 0.29871 3.0298 0.57961 4.3873 1.0214 c2.7749 0.8358 4.8653 2.1654 6.5802 3.9508 c0.31652 0.38894 0.65274 0.75504 0.91776 1.1936 l0.4214 0.63048 l0.35848 0.67434 c0.45445 0.9165 0.76272 1.9112 0.94128 2.9243 z"></path></g><g id="SvgjsG1210" featureKey="nameFeature-0" transform="matrix(0.733669703099759,0,0,0.733669703099759,86.82627093028593,18.196551295643054)" fill="#111111"><path d="M22.496 30.0756 c0.00082032 0.039258 -0.000625 0.07832 -0.0022656 0.11648 c-0.0010938 0.02332 0.00027344 0.046368 -0.0013672 0.06996 c-0.0010938 0.015117 -0.0030078 0.029922 -0.0041016 0.04504 l-0.0024609 0.027188 c-0.41232 5.4252 -4.9776 9.6648 -10.427 9.6648 c-5.7668 0 -10.459 -4.692 -10.459 -10.459 c0 -1.2128 0.98328 -2.196 2.196 -2.196 s2.196 0.98328 2.196 2.196 c0 3.3452 2.7215 6.0668 6.0668 6.0668 c2.8585 0 5.2916 -2.0127 5.9092 -4.724 l-7.4624 -7.4624 c-0.85756 -0.85756 -0.85756 -2.248 0 -3.1056 c0.85784 -0.85756 2.248 -0.85756 3.1058 0 l8.2428 8.2428 c0.016758 0.016758 0.030742 0.034609 0.04668 0.05164 c0.026914 0.028828 0.053828 0.057384 0.0791 0.087576 c0.023594 0.028008 0.045272 0.056564 0.067228 0.085116 c0.021133 0.027734 0.041992 0.055468 0.061756 0.084024 c0.021953 0.031836 0.04254 0.06422 0.062576 0.096876 c0.017031 0.027734 0.033789 0.055744 0.049728 0.084296 c0.018672 0.034024 0.03625 0.068048 0.053008 0.10262 c0.014805 0.029922 0.029062 0.060116 0.042228 0.09086 c0.014531 0.03375 0.027969 0.0675 0.040588 0.10152 c0.012617 0.03375 0.024414 0.067228 0.035391 0.10152 c0.010156 0.032656 0.019492 0.06504 0.028281 0.097968 c0.0098828 0.036524 0.018945 0.07332 0.026914 0.11066 c0.0068752 0.032383 0.012383 0.064764 0.017891 0.097148 c0.006328 0.037617 0.012109 0.075508 0.016484 0.11367 c0.0038281 0.03457 0.0062892 0.06914 0.0084764 0.10371 c0.0024609 0.035976 0.0046484 0.071952 0.0051952 0.1082 z M1.6213 21.924 c-0.00082032 -0.038984 0.00085936 -0.07832 0.0025 -0.11676 c0.0010938 -0.02332 -0.00027344 -0.046368 0.0013672 -0.06996 c0.0010938 -0.015117 0.0030078 -0.029922 0.0041016 -0.04504 l0.0024609 -0.027188 c0.41232 -5.4252 4.9776 -9.6648 10.427 -9.6648 c5.7668 0 10.459 4.692 10.459 10.459 c0 1.2128 -0.98328 2.196 -2.196 2.196 s-2.196 -0.98328 -2.196 -2.196 c0 -3.3452 -2.7215 -6.0668 -6.0668 -6.0668 c-2.8585 0 -5.2916 2.0127 -5.9092 4.724 l7.4624 7.4624 c0.85756 0.85756 0.85756 2.248 0 3.1056 c-0.4288 0.4288 -0.99072 0.64316 -1.5529 0.64316 s-1.1241 -0.21438 -1.5529 -0.64316 l-8.2428 -8.2428 c-0.016758 -0.016758 -0.030742 -0.034609 -0.04668 -0.05164 c-0.026914 -0.028828 -0.053828 -0.057384 -0.0791 -0.087576 c-0.023594 -0.028008 -0.045272 -0.056564 -0.067228 -0.085116 c-0.021133 -0.027734 -0.041992 -0.055468 -0.061756 -0.084024 c-0.021953 -0.031836 -0.04254 -0.06422 -0.062576 -0.096876 c-0.017031 -0.027734 -0.033789 -0.055744 -0.049728 -0.084296 c-0.018672 -0.034024 -0.03625 -0.068048 -0.053008 -0.10262 c-0.014805 -0.030195 -0.028789 -0.060116 -0.042228 -0.09086 c-0.014531 -0.033476 -0.027969 -0.0675 -0.040588 -0.10152 c-0.012617 -0.033476 -0.024414 -0.066952 -0.035391 -0.10125 c-0.01043 -0.032383 -0.019766 -0.06504 -0.028555 -0.097968 c-0.0098828 -0.036797 -0.018945 -0.07332 -0.026914 -0.11066 c-0.0068752 -0.032383 -0.012383 -0.064764 -0.017891 -0.097148 c-0.006328 -0.037617 -0.012109 -0.075508 -0.016484 -0.11367 c-0.0038281 -0.03457 -0.0062892 -0.06914 -0.0084764 -0.10371 c-0.0024609 -0.035976 -0.0046484 -0.071952 -0.0051952 -0.1082 z M34.643 35.608 c1.2128 0 2.1961 0.98332 2.1961 2.1961 s-0.98328 2.196 -2.196 2.196 c-5.7668 0 -10.459 -4.692 -10.459 -10.459 l0 -15.345 c0 -1.2128 0.98328 -2.196 2.196 -2.196 s2.196 0.98328 2.196 2.196 l0 5.2217 l6.0666 0 c1.2128 0 2.196 0.98328 2.196 2.196 s-0.98328 2.196 -2.196 2.196 l-6.0666 0 l0 5.7312 c0 3.3452 2.7215 6.0668 6.0668 6.0668 z M57.25 19.412 c1.2128 0 2.1962 0.98328 2.1962 2.196 l0 15.338 c0 5.7668 -4.692 10.459 -10.459 10.459 c-1.2128 0 -2.196 -0.98328 -2.196 -2.196 s0.98328 -2.196 2.196 -2.196 c2.9375 0 5.3936 -2.0992 5.9484 -4.876 c-1.6902 1.1732 -3.7399 1.8634 -5.9488 1.8634 c-5.7668 0 -10.459 -4.692 -10.459 -10.459 l0 -7.9333 c0 -1.2128 0.98328 -2.196 2.196 -2.196 s2.196 0.98328 2.196 2.196 l0 7.9333 c0 3.3452 2.7215 6.0668 6.0668 6.0668 s6.0668 -2.7215 6.0668 -6.0668 l0 -7.9333 c0 -1.2128 0.98328 -2.196 2.196 -2.196 z M71.571 35.608 c1.2128 0 2.1961 0.98332 2.1961 2.1961 s-0.98328 2.196 -2.196 2.196 c-5.7668 0 -10.459 -4.692 -10.459 -10.459 l0 -15.345 c0 -1.2128 0.98328 -2.196 2.196 -2.196 s2.196 0.98328 2.196 2.196 l0 15.345 c0 3.3452 2.7215 6.0668 6.0668 6.0668 z M83.75 19.412 c5.6764 0 10.294 4.6176 10.294 10.294 c0 1.2128 -0.98328 2.196 -2.196 2.196 l-13.576 0 c0.87292 2.17 2.9995 3.7059 5.4784 3.7059 c1.5765 0 3.0586 -0.6138 4.1732 -1.7286 c0.85784 -0.85756 2.248 -0.85732 3.1058 0 c0.85784 0.85784 0.85756 2.2482 0 3.1058 c-1.9446 1.9443 -4.5296 3.0149 -7.2792 3.0149 c-5.6764 0 -10.294 -4.6176 -10.294 -10.294 s4.6176 -10.294 10.294 -10.294 z M78.27159999999999 27.509999999999998 l10.957 0 c-0.87292 -2.17 -2.9995 -3.7059 -5.4784 -3.7059 s-4.6056 1.5359 -5.4784 3.7059 z M116.61599999999999 30.0756 c0.00082032 0.039258 -0.000625 0.07832 -0.0022656 0.11648 c-0.0010938 0.02332 0.00027344 0.046368 -0.0013672 0.06996 c-0.0010938 0.015117 -0.0030078 0.029922 -0.0041016 0.04504 l-0.0024609 0.027188 c-0.41232 5.4252 -4.9776 9.6648 -10.427 9.6648 c-5.7668 0 -10.459 -4.692 -10.459 -10.459 c0 -1.2128 0.98328 -2.196 2.196 -2.196 s2.196 0.98328 2.196 2.196 c0 3.3452 2.7215 6.0668 6.0668 6.0668 c2.8585 0 5.2916 -2.0127 5.9092 -4.724 l-7.4624 -7.4624 c-0.85756 -0.85756 -0.85756 -2.248 0 -3.1056 c0.85784 -0.85756 2.248 -0.85756 3.1058 0 l8.2428 8.2428 c0.016758 0.016758 0.030742 0.034609 0.04668 0.05164 c0.026914 0.028828 0.053828 0.057384 0.0791 0.087576 c0.023594 0.028008 0.045272 0.056564 0.067228 0.085116 c0.021133 0.027734 0.041992 0.055468 0.061756 0.084024 c0.021953 0.031836 0.04254 0.06422 0.062576 0.096876 c0.017031 0.027734 0.033789 0.055744 0.049728 0.084296 c0.018672 0.034024 0.03625 0.068048 0.053008 0.10262 c0.014805 0.029922 0.029062 0.060116 0.042228 0.09086 c0.014531 0.03375 0.027969 0.0675 0.040588 0.10152 c0.012617 0.03375 0.024414 0.067228 0.035391 0.10152 c0.010156 0.032656 0.019492 0.06504 0.028281 0.097968 c0.0098828 0.036524 0.018945 0.07332 0.026914 0.11066 c0.0068752 0.032383 0.012383 0.064764 0.017891 0.097148 c0.006328 0.037617 0.012109 0.075508 0.016484 0.11367 c0.0038281 0.03457 0.0062892 0.06914 0.0084764 0.10371 c0.0024609 0.035976 0.0046484 0.071952 0.0051952 0.1082 z M95.7413 21.924 c-0.00082032 -0.038984 0.00085936 -0.07832 0.0025 -0.11676 c0.0010938 -0.02332 -0.00027344 -0.046368 0.0013672 -0.06996 c0.0010938 -0.015117 0.0030078 -0.029922 0.0041016 -0.04504 l0.0024609 -0.027188 c0.41232 -5.4252 4.9776 -9.6648 10.427 -9.6648 c5.7668 0 10.459 4.692 10.459 10.459 c0 1.2128 -0.98328 2.196 -2.196 2.196 s-2.196 -0.98328 -2.196 -2.196 c0 -3.3452 -2.7215 -6.0668 -6.0668 -6.0668 c-2.8585 0 -5.2916 2.0127 -5.9092 4.724 l7.4624 7.4624 c0.85756 0.85756 0.85756 2.248 0 3.1056 c-0.4288 0.4288 -0.99072 0.64316 -1.5529 0.64316 s-1.1241 -0.21438 -1.5529 -0.64316 l-8.2428 -8.2428 c-0.016758 -0.016758 -0.030742 -0.034609 -0.04668 -0.05164 c-0.026914 -0.028828 -0.053828 -0.057384 -0.0791 -0.087576 c-0.023594 -0.028008 -0.045272 -0.056564 -0.067228 -0.085116 c-0.021133 -0.027734 -0.041992 -0.055468 -0.061756 -0.084024 c-0.021953 -0.031836 -0.04254 -0.06422 -0.062576 -0.096876 c-0.017031 -0.027734 -0.033789 -0.055744 -0.049728 -0.084296 c-0.018672 -0.034024 -0.03625 -0.068048 -0.053008 -0.10262 c-0.014805 -0.030195 -0.028789 -0.060116 -0.042228 -0.09086 c-0.014531 -0.033476 -0.027969 -0.0675 -0.040588 -0.10152 c-0.012617 -0.033476 -0.024414 -0.066952 -0.035391 -0.10125 c-0.01043 -0.032383 -0.019766 -0.06504 -0.028555 -0.097968 c-0.0098828 -0.036797 -0.018945 -0.07332 -0.026914 -0.11066 c-0.0068752 -0.032383 -0.012383 -0.064764 -0.017891 -0.097148 c-0.006328 -0.037617 -0.012109 -0.075508 -0.016484 -0.11367 c-0.0038281 -0.03457 -0.0062892 -0.06914 -0.0084764 -0.10371 c-0.0024609 -0.035976 -0.0046484 -0.071952 -0.0051952 -0.1082 z M132.772 33.8792 c0.85756 -0.85756 2.2482 -0.85772 3.1058 0.00011719 c0.85784 0.85756 0.85784 2.248 0 3.1056 c-1.9443 1.9443 -4.5292 3.0149 -7.2792 3.0149 c-5.6764 0 -10.294 -4.6176 -10.294 -10.294 s4.6176 -10.294 10.294 -10.294 c2.7498 0 5.3348 1.0706 7.2788 3.0152 c0.85784 0.85756 0.85784 2.248 0 3.1056 c-0.85756 0.85756 -2.248 0.85756 -3.1056 0 c-1.1145 -1.1148 -2.5968 -1.7286 -4.1732 -1.7286 c-3.2543 0 -5.902 2.6476 -5.902 5.902 s2.6476 5.902 5.902 5.902 c1.5765 0 3.0586 -0.6138 4.1732 -1.7286 z M148.475 19.467 c5.6612 0 10.267 4.6056 10.267 10.267 l0 8.0706 c0 1.2128 -0.98328 2.196 -2.196 2.196 s-2.196 -0.98328 -2.196 -2.196 l0 -8.0706 c0 -3.2392 -2.6353 -5.8744 -5.8744 -5.8744 s-5.8744 2.6353 -5.8744 5.8744 l0 8.0706 c0 1.2128 -0.98328 2.196 -2.196 2.196 s-2.196 -0.98328 -2.196 -2.196 l0 -23.608 c0 -1.2128 0.98328 -2.196 2.196 -2.196 s2.196 0.98328 2.196 2.196 l0 7.1246 c1.6657 -1.1667 3.6908 -1.8541 5.8744 -1.8541 z M170.686 19.412 c5.6764 0 10.294 4.6176 10.294 10.294 c0 1.2128 -0.98328 2.196 -2.196 2.196 l-13.576 0 c0.87292 2.17 2.9995 3.7059 5.4784 3.7059 c1.5765 0 3.0586 -0.6138 4.1732 -1.7286 c0.85784 -0.85756 2.248 -0.85732 3.1058 0 c0.85784 0.85784 0.85756 2.2482 0 3.1058 c-1.9446 1.9443 -4.5296 3.0149 -7.2792 3.0149 c-5.6764 0 -10.294 -4.6176 -10.294 -10.294 s4.6176 -10.294 10.294 -10.294 z M165.2076 27.509999999999998 l10.957 0 c-0.87292 -2.17 -2.9995 -3.7059 -5.4784 -3.7059 s-4.6056 1.5359 -5.4784 3.7059 z M200.99300000000002 12 c1.2128 0 2.1961 0.98328 2.1961 2.196 l0 23.608 c0 1.2128 -0.98328 2.196 -2.196 2.196 c-1.103 0 -2.013 -0.81364 -2.1697 -1.873 c-1.6707 1.1782 -3.7056 1.873 -5.9008 1.873 c-5.6612 0 -10.267 -4.6056 -10.267 -10.267 s4.6056 -10.267 10.267 -10.267 c2.1837 0 4.2088 0.6874 5.8744 1.8541 l0 -7.1249 c0 -1.2128 0.98328 -2.196 2.196 -2.196 z M192.923 35.608 c3.2392 0 5.8744 -2.6353 5.8744 -5.8744 s-2.6353 -5.8744 -5.8744 -5.8744 s-5.8744 2.6353 -5.8744 5.8744 s2.6353 5.8744 5.8744 5.8744 z M223.232 19.412 c1.2128 0 2.196 0.98328 2.196 2.196 l0 8.098 c0 5.6764 -4.6176 10.294 -10.294 10.294 s-10.294 -4.6176 -10.294 -10.294 l0 -8.098 c0 -1.2128 0.98328 -2.196 2.196 -2.196 s2.196 0.98328 2.196 2.196 l0 8.098 c0 3.2543 2.6476 5.902 5.902 5.902 s5.902 -2.6476 5.902 -5.902 l0 -8.098 c0 -1.2128 0.98328 -2.196 2.196 -2.196 z M237.56300000000002 35.608 c1.2128 0 2.1961 0.98332 2.1961 2.1961 s-0.98328 2.196 -2.196 2.196 c-5.7668 0 -10.459 -4.692 -10.459 -10.459 l0 -15.345 c0 -1.2128 0.98328 -2.196 2.196 -2.196 s2.196 0.98328 2.196 2.196 l0 15.345 c0 3.3452 2.7215 6.0668 6.0668 6.0668 z M249.74200000000002 19.412 c5.6764 0 10.294 4.6176 10.294 10.294 c0 1.2128 -0.98328 2.196 -2.196 2.196 l-13.576 0 c0.87292 2.17 2.9995 3.7059 5.4784 3.7059 c1.5765 0 3.0586 -0.6138 4.1732 -1.7286 c0.85784 -0.85756 2.248 -0.85732 3.1058 0 c0.85784 0.85784 0.85756 2.2482 0 3.1058 c-1.9446 1.9443 -4.5296 3.0149 -7.2792 3.0149 c-5.6764 0 -10.294 -4.6176 -10.294 -10.294 s4.6176 -10.294 10.294 -10.294 z M244.26360000000003 27.509999999999998 l10.957 0 c-0.87292 -2.17 -2.9995 -3.7059 -5.4784 -3.7059 s-4.6056 1.5359 -5.4784 3.7059 z M272.00600000000003 19.412 c1.2128 0 2.196 0.98328 2.196 2.196 s-0.98328 2.196 -2.196 2.196 c-3.2543 0 -5.902 2.6476 -5.902 5.902 l0 8.098 c0 1.2128 -0.98328 2.196 -2.196 2.196 s-2.196 -0.98328 -2.196 -2.196 l0 -16.196 c0 -1.2128 0.98328 -2.196 2.196 -2.196 c1.1071 0 2.0201 0.81996 2.1716 1.885 c1.677 -1.1856 3.721 -1.885 5.9264 -1.885 z"></path></g>
			</g>
		</svg>
	